<svg xmlns="http://www.w3.org/2000/svg" viewBox="0 0 256 256">
    <path d="M134.121544,-673.811033q-6.619474-6.620692-10.370509-15.301155t-3.751035-17.949433t3.530386-18.317248t11.473755-16.99311q5.148479-5.149427,12.724099-8.827589t17.946129-5.811497t23.683006-2.574713t29.787632,1.029885q1.176795,15.595408.735497,28.689666t-2.42714,23.613802-5.589778,18.390812-8.899515,13.167821q-7.796269,7.797704-16.548684,11.402303t-17.872579,3.604599q-9.561462,0-18.681626-3.751726t-15.739638-10.372417Zm16.475135-2.354024q4.265883,2.50115,8.752415,3.604599t9.193714,1.103449q6.766573,0,13.386047-2.72184t12.650549-8.754027q2.64779-2.648277,5.369129-7.429888t4.707182-12.505751t3.015538-18.685065.294198-26.114952q-7.207871-.294253-16.254485-.22069t-18.019679,1.397702-17.063532,4.266668-13.238948,8.091957q-6.619473,6.620692-9.120164,13.094258t-2.50069,12.505752q0,8.680463,3.309737,15.227592t5.810427,9.195405q6.178176-11.770119,16.328036-22.583916t23.683006-17.728743q-10.591158,9.268969-18.460977,20.965526t-11.841503,27.291964Zm0,0" transform="translate(-42.000004 798.969761)" fill="#ffffff"/>
    <path d="M88,-656q-6.6,0-11.3-4.7t-4.7-11.3t4.7-11.3t11.3-4.7t11.3,4.7t4.7,11.3-4.7,11.3-11.3,4.7Zm0,32q-20,0-34-14t-14-34t14-34t34-14q13.4,0,24.3,6.6t17.3,17.4h70.4l24,24-36,36-16-12-16,12-17-12h-9.4q-6.4,10.8-17.3,17.4t-24.3,6.6Zm0-16q11.2,0,19.7-6.8t11.3-17.2h25l11.6,8.2L172,-668l14.2,11l15-15-8-8h-74.2q-2.8-10.4-11.3-17.2t-19.7-6.8q-13.2,0-22.6,9.4t-9.4,22.6t9.4,22.6t22.6,9.4Z" transform="translate(-4 840.717069)" fill="#ffffff"/>
</svg>
