<?xml version="1.0" encoding="utf-8"?>
<!-- Generator: Adobe Illustrator 25.4.1, SVG Export Plug-In . SVG Version: 6.00 Build 0)  -->
<svg version="1.1" id="Layer_1" xmlns="http://www.w3.org/2000/svg" xmlns:xlink="http://www.w3.org/1999/xlink" x="0px" y="0px"
	 viewBox="0 0 256 256" style="enable-background:new 0 0 256 256;" xml:space="preserve">
<path d="M92.1,125.2c-4.4-4.4-7.9-9.5-10.4-15.3S78,98.1,78,91.9s1.2-12.3,3.5-18.3c2.4-6,6.2-11.7,11.5-17
	c3.4-3.4,7.7-6.4,12.7-8.8s11-4.4,17.9-5.8c6.9-1.4,14.8-2.3,23.7-2.6s18.8,0,29.8,1c0.8,10.4,1,20,0.7,28.7s-1.1,16.6-2.4,23.6
	c-1.3,7-3.2,13.1-5.6,18.4s-5.4,9.6-8.9,13.2c-5.2,5.2-10.7,9-16.5,11.4s-11.8,3.6-17.9,3.6c-6.4,0-12.6-1.3-18.7-3.8
	C101.8,133,96.5,129.6,92.1,125.2L92.1,125.2z M108.6,122.8c2.8,1.7,5.8,2.9,8.8,3.6s6.1,1.1,9.2,1.1c4.5,0,9-0.9,13.4-2.7
	c4.4-1.8,8.6-4.7,12.7-8.8c1.8-1.8,3.6-4.2,5.4-7.4s3.4-7.4,4.7-12.5s2.3-11.4,3-18.7s0.8-16,0.3-26.1c-4.8-0.2-10.2-0.3-16.3-0.2
	c-6,0-12,0.5-18,1.4s-11.7,2.3-17.1,4.3s-9.8,4.7-13.2,8.1c-4.4,4.4-7.5,8.8-9.1,13.1s-2.5,8.5-2.5,12.5c0,5.8,1.1,10.9,3.3,15.2
	s4.1,7.4,5.8,9.2c4.1-7.8,9.6-15.4,16.3-22.6S130,79.2,139,74.6c-7.1,6.2-13.2,13.2-18.5,21C115.2,103.3,111.2,112.4,108.6,122.8
	L108.6,122.8z" fill="#fff"/>
<path d="M84,184.7c-4.4,0-8.2-1.6-11.3-4.7c-3.1-3.1-4.7-6.9-4.7-11.3s1.6-8.2,4.7-11.3s6.9-4.7,11.3-4.7s8.2,1.6,11.3,4.7
	c3.1,3.1,4.7,6.9,4.7,11.3s-1.6,8.2-4.7,11.3C92.2,183.2,88.4,184.7,84,184.7z M84,216.7c-13.3,0-24.7-4.7-34-14s-14-20.7-14-34
	s4.7-24.7,14-34s20.7-14,34-14c8.9,0,17,2.2,24.3,6.6s13,10.2,17.3,17.4H196l24,24l-36,36l-16-12l-16,12l-17-12h-9.4
	c-4.3,7.2-10,13-17.3,17.4S92.9,216.7,84,216.7z M84,200.7c7.5,0,14-2.3,19.7-6.8s9.4-10.3,11.3-17.2h25l11.6,8.2l16.4-12.2l14.2,11
	l15-15l-8-8H115c-1.9-6.9-5.6-12.7-11.3-17.2c-5.7-4.5-12.2-6.8-19.7-6.8c-8.8,0-16.3,3.1-22.6,9.4c-6.3,6.3-9.4,13.8-9.4,22.6
	s3.1,16.3,9.4,22.6C67.7,197.6,75.2,200.7,84,200.7z" fill="#fff"/>
</svg>
